{"title":"Bernardes.2014.720p.WEB-DL.mp4","uid":15898411,"size":1418131876,"categoryP":"video","categoryS":"movies","magnet":"?xt=urn:btih:f6aa4a5415e563b2d222fc5ddd8ca0bed5f827d8&amp;dn=Bernardes.2014.720p.WEB-DL.mp4&amp;tr=udp%3A%2F%2Ftracker.leechers-paradise.org%3A6969&amp;tr=udp%3A%2F%2Fzer0day.ch%3A1337&amp;tr=udp%3A%2F%2Fopen.demonii.com%3A1337&amp;tr=udp%3A%2F%2Ftracker.coppersurfer.tk%3A6969&amp;tr=udp%3A%2F%2Fexodus.desync.com%3A6969","seeders":1,"leechers":1,"uploader":"goooz","files":1,"time":1474981337,"description":"The architect Thiago Bernardes revisits the brilliant and controversial life and career of his Grandfather, Serio Bernardes (1919 - 2002). Through a vast granted material he explores the trajectory of one of the greatest Brazillian architects.\r\n\r\nFile size                                : 1.32 GiB\r\nDuration                                 : 1h 31mn\r\nOverall bit rate mode                    : Variable\r\nOverall bit rate                         : 2 058 Kbps\r\nWriting application                      : Lavf54.63.104\r\n\r\nVideo\r\nID                                       : 1\r\nFormat                                   : AVC\r\nFormat/Info                              : Advanced Video Codec\r\nFormat profile                           :   \r\nFormat settings, CABAC                   : Yes\r\nFormat settings, ReFrames                : 2 frames\r\nCodec ID                                 : avc1\r\nCodec ID/Info                            : Advanced Video Coding\r\nDuration                                 : 1h 31mn\r\nBit rate                                 : 1 961 Kbps\r\nWidth                                    : 1 280 pixels\r\nHeight                                   : 720 pixels\r\nDisplay aspect ratio                     : 16:9\r\nFrame rate mode                          : Constant\r\nFrame rate                               : 29.970 fps\r\nColor space                              : YUV\r\nChroma subsampling                       : 4:2:0\r\nBit depth                                : 8 bits\r\nScan type                                : Progressive\r\nBits/(Pixel*Frame)                       : 0.071\r\nStream size                              : 1.26 GiB (95%)\r\nWriting library                          : x264 core 124\r\n\r\nAudio\r\nID                                       : 2\r\nFormat                                   : AAC\r\nFormat/Info                              : Advanced Audio Codec\r\nFormat profile                           : LC\r\nCodec ID                                 : 40\r\nDuration                                 : 1h 31mn\r\nBit rate mode                            : Variable\r\nBit rate                                 : 89.2 Kbps\r\nMaximum bit rate                         : 128 Kbps\r\nChannel(s)                               : 2 channels\r\nChannel positions                        : Front: L R\r\nSampling rate                            : 48.0 KHz\r\nCompression mode                         : Lossy\r\nStream size                              : 58.6 MiB (4%)\r\nLanguage                                 : Portuguese","torrent":{"xt":"urn:btih:f6aa4a5415e563b2d222fc5ddd8ca0bed5f827d8","amp;dn":"Bernardes.2014.720p.WEB-DL.mp4","amp;tr":["udp%3A%2F%2Ftracker.leechers-paradise.org%3A6969","udp%3A%2F%2Fzer0day.ch%3A1337","udp%3A%2F%2Fopen.demonii.com%3A1337","udp%3A%2F%2Ftracker.coppersurfer.tk%3A6969","udp%3A%2F%2Fexodus.desync.com%3A6969"],"infoHash":"f6aa4a5415e563b2d222fc5ddd8ca0bed5f827d8","infoHashBuffer":{"type":"Buffer","data":[246,170,74,84,21,229,99,178,210,34,252,93,221,140,160,190,213,248,39,216]},"announce":[],"urlList":[]}}